<svg width="45" height="58" viewBox="0 0 45 58" fill="none" xmlns="http://www.w3.org/2000/svg">
<path d="M22.0248 0C9.84825 0 0 9.32409 0 20.8526C0 33.2748 13.9071 50.4037 19.6336 56.9276C20.8921 58.3575 23.189 58.3575 24.4476 56.9276C30.1426 50.4037 44.0497 33.2748 44.0497 20.8526C44.0497 9.32409 34.2014 0 22.0248 0ZM22.0248 28.2999C17.6828 28.2999 14.1588 24.9635 14.1588 20.8526C14.1588 16.7417 17.6828 13.4052 22.0248 13.4052C26.3669 13.4052 29.8908 16.7417 29.8908 20.8526C29.8908 24.9635 26.3669 28.2999 22.0248 28.2999Z" fill="#28B66A"/>
</svg>
