<svg width="98" height="98" viewBox="0 0 98 98" fill="none" xmlns="http://www.w3.org/2000/svg">
<path d="M88.2 8.90909H83.3V4.45455C83.3 2.00455 81.095 0 78.4 0C75.705 0 73.5 2.00455 73.5 4.45455V8.90909H24.5V4.45455C24.5 2.00455 22.295 0 19.6 0C16.905 0 14.7 2.00455 14.7 4.45455V8.90909H9.8C4.41 8.90909 0 12.9182 0 17.8182V89.0909C0 93.9909 4.41 98 9.8 98H88.2C93.59 98 98 93.9909 98 89.0909V17.8182C98 12.9182 93.59 8.90909 88.2 8.90909ZM83.3 89.0909H14.7C12.005 89.0909 9.8 87.0864 9.8 84.6364V31.1818H88.2V84.6364C88.2 87.0864 85.995 89.0909 83.3 89.0909Z" fill="#0F2232"/>
</svg>
