<svg width="39" height="39" viewBox="0 0 39 39" fill="none" xmlns="http://www.w3.org/2000/svg">
<path d="M34.6667 3.9H32.5V1.95C32.5 0.8775 31.525 0 30.3333 0C29.1417 0 28.1667 0.8775 28.1667 1.95V3.9H10.8333V1.95C10.8333 0.8775 9.85833 0 8.66667 0C7.475 0 6.5 0.8775 6.5 1.95V3.9H4.33333C1.92833 3.9 0.0216666 5.655 0.0216666 7.8L0 35.1C0 37.245 1.92833 39 4.33333 39H34.6667C37.05 39 39 37.245 39 35.1V7.8C39 5.655 37.05 3.9 34.6667 3.9ZM34.6667 33.15C34.6667 34.2225 33.6917 35.1 32.5 35.1H6.5C5.30833 35.1 4.33333 34.2225 4.33333 33.15V13.65H34.6667V33.15ZM8.66667 17.55H13V21.45H8.66667V17.55ZM17.3333 17.55H21.6667V21.45H17.3333V17.55ZM26 17.55H30.3333V21.45H26V17.55Z" fill="black"/>
</svg>
