<svg width="45" height="45" viewBox="0 0 45 45" fill="none" xmlns="http://www.w3.org/2000/svg">
<path d="M44.0017 1.03242C42.6706 -0.298634 40.5205 -0.298634 39.1894 1.03242L22.5 17.6877L5.81058 0.998294C4.47952 -0.332765 2.32935 -0.332765 0.998294 0.998294C-0.332765 2.32935 -0.332765 4.47952 0.998294 5.81058L17.6877 22.5L0.998294 39.1894C-0.332765 40.5205 -0.332765 42.6706 0.998294 44.0017C2.32935 45.3328 4.47952 45.3328 5.81058 44.0017L22.5 27.3123L39.1894 44.0017C40.5205 45.3328 42.6706 45.3328 44.0017 44.0017C45.3328 42.6706 45.3328 40.5205 44.0017 39.1894L27.3123 22.5L44.0017 5.81058C45.2986 4.51365 45.2986 2.32935 44.0017 1.03242Z" fill="#FF0000"/>
</svg>
