<svg width="68" height="68" viewBox="0 0 68 68" fill="none" xmlns="http://www.w3.org/2000/svg">
<path d="M48.5992 42.7673H45.5277L44.4391 41.7176C48.2493 37.2853 50.5432 31.5312 50.5432 25.2716C50.5432 11.3139 39.2293 0 25.2716 0C11.3139 0 0 11.3139 0 25.2716C0 39.2293 11.3139 50.5432 25.2716 50.5432C31.5312 50.5432 37.2853 48.2493 41.7176 44.4391L42.7673 45.5277V48.5992L62.207 68L68 62.207L48.5992 42.7673ZM25.2716 42.7673C15.5906 42.7673 7.77587 34.9525 7.77587 25.2716C7.77587 15.5906 15.5906 7.77587 25.2716 7.77587C34.9525 7.77587 42.7673 15.5906 42.7673 25.2716C42.7673 34.9525 34.9525 42.7673 25.2716 42.7673Z" fill="#E9ECEE"/>
</svg>
