<svg width="48" height="60" viewBox="0 0 48 60" fill="none" xmlns="http://www.w3.org/2000/svg">
<path d="M3.99984 53.3333C3.99984 57 6.99984 60 10.6665 60H37.3332C40.9998 60 43.9998 57 43.9998 53.3333V20C43.9998 16.3333 40.9998 13.3333 37.3332 13.3333H10.6665C6.99984 13.3333 3.99984 16.3333 3.99984 20V53.3333ZM43.9998 3.33333H35.6665L33.2998 0.966667C32.6998 0.366666 31.8332 0 30.9665 0H17.0332C16.1665 0 15.2998 0.366666 14.6998 0.966667L12.3332 3.33333H3.99984C2.1665 3.33333 0.666504 4.83333 0.666504 6.66667C0.666504 8.5 2.1665 10 3.99984 10H43.9998C45.8332 10 47.3332 8.5 47.3332 6.66667C47.3332 4.83333 45.8332 3.33333 43.9998 3.33333Z" fill="black"/>
</svg>
