<svg width="98" height="98" viewBox="0 0 98 98" fill="none" xmlns="http://www.w3.org/2000/svg">
<path d="M49 0C21.952 0 0 21.952 0 49C0 76.048 21.952 98 49 98C76.048 98 98 76.048 98 49C98 21.952 76.048 0 49 0ZM49 14.7C57.134 14.7 63.7 21.266 63.7 29.4C63.7 37.534 57.134 44.1 49 44.1C40.866 44.1 34.3 37.534 34.3 29.4C34.3 21.266 40.866 14.7 49 14.7ZM49 84.28C36.75 84.28 25.921 78.008 19.6 68.502C19.747 58.751 39.2 53.41 49 53.41C58.751 53.41 78.253 58.751 78.4 68.502C72.079 78.008 61.25 84.28 49 84.28Z" fill="#0F2232"/>
</svg>
